<?xml version="1.0" encoding="UTF-8" standalone="no"?>
<!-- Created with Inkscape (http://www.inkscape.org/) -->

<svg
   width="100px"
   height="60px"
   viewBox="0 0 100 60"
   version="1.1"
   id="SVGRoot"
   sodipodi:docname="lamp.svg"
   inkscape:version="1.1 (c68e22c387, 2021-05-23)"
   xmlns:inkscape="http://www.inkscape.org/namespaces/inkscape"
   xmlns:sodipodi="http://sodipodi.sourceforge.net/DTD/sodipodi-0.dtd"
   xmlns="http://www.w3.org/2000/svg"
   xmlns:svg="http://www.w3.org/2000/svg">
  <sodipodi:namedview
     id="namedview919"
     pagecolor="#ffffff"
     bordercolor="#111111"
     borderopacity="1"
     inkscape:pageshadow="0"
     inkscape:pageopacity="0"
     inkscape:pagecheckerboard="1"
     inkscape:document-units="px"
     showgrid="false"
     inkscape:zoom="11.313709"
     inkscape:cx="5.7894368"
     inkscape:cy="31.952388"
     inkscape:window-width="1920"
     inkscape:window-height="1001"
     inkscape:window-x="-9"
     inkscape:window-y="-9"
     inkscape:window-maximized="1"
     inkscape:current-layer="layer1" />
  <defs
     id="defs914">
    <inkscape:path-effect
       effect="bspline"
       id="path-effect5827"
       is_visible="true"
       lpeversion="1"
       weight="33.333333"
       steps="2"
       helper_size="0"
       apply_no_weight="true"
       apply_with_weight="true"
       only_selected="false" />
    <inkscape:path-effect
       effect="bspline"
       id="path-effect5108"
       is_visible="true"
       lpeversion="1"
       weight="33.333333"
       steps="2"
       helper_size="0"
       apply_no_weight="true"
       apply_with_weight="true"
       only_selected="false" />
    <inkscape:path-effect
       effect="bspline"
       id="path-effect4910"
       is_visible="true"
       lpeversion="1"
       weight="33.333333"
       steps="2"
       helper_size="0"
       apply_no_weight="true"
       apply_with_weight="true"
       only_selected="false" />
    <inkscape:path-effect
       effect="bspline"
       id="path-effect4025"
       is_visible="true"
       lpeversion="1"
       weight="33.333333"
       steps="2"
       helper_size="0"
       apply_no_weight="true"
       apply_with_weight="true"
       only_selected="false" />
    <inkscape:path-effect
       effect="bspline"
       id="path-effect2650"
       is_visible="true"
       lpeversion="1"
       weight="33.333333"
       steps="2"
       helper_size="0"
       apply_no_weight="true"
       apply_with_weight="true"
       only_selected="false" />
    <inkscape:path-effect
       effect="bspline"
       id="path-effect2533"
       is_visible="true"
       lpeversion="1"
       weight="33.333333"
       steps="2"
       helper_size="0"
       apply_no_weight="true"
       apply_with_weight="true"
       only_selected="false" />
    <inkscape:path-effect
       effect="bspline"
       id="path-effect1039"
       is_visible="true"
       lpeversion="1"
       weight="33.333333"
       steps="2"
       helper_size="0"
       apply_no_weight="true"
       apply_with_weight="true"
       only_selected="false" />
  </defs>
  <g
     inkscape:label="Слой 1"
     inkscape:groupmode="layer"
     id="layer1">
    <path
       style="fill:#c9c9c9;fill-opacity:1;stroke:#000000;stroke-width:1px;stroke-linecap:butt;stroke-linejoin:miter;stroke-opacity:1"
       d="m 6.0050908,28.730002 c 0.2001033,1.661695 0.6965005,4.171259 2.393018,6.377292 1.6965172,2.206033 4.5920522,4.108812 7.6047532,4.694383 3.012701,0.585572 6.142637,-0.145206 8.444964,-1.723829 2.302327,-1.578622 3.777701,-4.005406 4.391449,-6.314647 0.613749,-2.309241 0.365555,-4.501619 0.875596,-6.770274 0.51004,-2.268655 1.778586,-4.612707 2.881789,-6.267544 1.103204,-1.654837 2.040838,-2.620049 2.978477,-3.585266 0,0 -5.460369,-5.7085689 -5.460369,-5.7085689 -1.130683,1.1031049 -2.261354,2.2061989 -3.957329,3.6126219 -1.695975,1.406423 -3.957295,3.116201 -6.190689,3.984949 -2.233394,0.868747 -4.43956,0.896323 -6.535881,1.627084 -2.096322,0.730761 -4.0818709,2.164769 -5.3023802,3.412975 -1.2205092,1.248206 -1.6755307,2.309923 -1.9512551,3.247756 -0.2757245,0.937833 -0.3722462,1.751374 -0.1721429,3.413068 z"
       id="path1037"
       inkscape:path-effect="#path-effect1039"
       inkscape:original-d="m 5.708569,27.88098 c 0.497397,2.510564 0.9937944,5.020128 1.4891914,7.528692 2.8967086,1.903894 5.7922426,3.806674 8.6869516,5.708568 3.131124,-0.729822 6.26106,-1.4606 9.390183,-2.192421 1.476432,-2.425879 2.951806,-4.852663 4.426208,-7.280493 -0.247203,-2.191465 -0.495397,-4.383843 -0.744596,-6.577264 1.269597,-2.343145 2.538142,-4.687197 3.805713,-7.032295 0.938658,-0.964236 2.812917,-2.89565 2.812917,-2.89565 L 30.114768,9.4315481 c 0,0 -2.260366,2.2072109 -3.392048,3.3093149 -2.260411,1.710847 -4.521731,3.420626 -6.784096,5.129438 -2.205255,0.02858 -4.411421,0.05616 -6.618631,0.08273 -1.984628,1.435066 -3.9701776,2.869073 -5.9567666,4.30211 -0.45404,1.06276 -0.909061,2.124477 -1.3650924,3.185216 -0.09552,0.814541 -0.192044,1.628082 -0.289565,2.440623 z"
       sodipodi:nodetypes="sccccccccccccss" />
    <path
       style="fill:#000000;fill-opacity:1;stroke:#000000;stroke-width:1px;stroke-linecap:butt;stroke-linejoin:miter;stroke-opacity:1"
       d="m 30.114768,9.4315481 c 1.627034,-1.7924953 3.254113,-3.5850406 4.923195,-4.0121834 1.669081,-0.4271428 3.37886,0.510478 4.384974,1.6965835 1.006113,1.1861055 1.309461,2.6201135 0.551025,3.9983638 -0.758436,1.37825 -2.578524,2.701949 -4.398825,4.025805"
       id="path2531"
       inkscape:path-effect="#path-effect2533"
       inkscape:original-d="m 30.114768,9.4315481 c 1.62808,-1.7915457 3.255159,-3.5840914 4.881239,-5.3776371 1.710847,0.9386581 3.420626,1.8762786 5.129438,2.8129179 0.30436,1.4350652 0.607708,2.8690731 0.910062,4.3021101 -1.81916,1.324752 -3.639247,2.648452 -5.46037,3.971178" />
    <path
       style="fill:#000000;fill-opacity:1;stroke:#000000;stroke-width:1px;stroke-linecap:butt;stroke-linejoin:miter;stroke-opacity:1"
       d="m 38.222589,13.237261 c -0.220621,12.796018 -0.441259,25.593019 -2.619417,31.962966 -2.178159,6.369946 -6.314721,6.314792 -8.742169,7.087205 -2.427447,0.772412 -3.144245,2.371423 -3.861263,3.970925 0,0 33.755014,0 33.755014,0 -0.52325,-1.504288 -1.046072,-3.007345 -3.628379,-3.760105 -2.582307,-0.75276 -7.223965,-0.75276 -9.732515,-7.482353 -2.508551,-6.729592 -2.882758,-20.190291 -3.256944,-33.650233 0,0 -1.914327,1.871595 -1.914327,1.871595 z"
       id="path2648"
       inkscape:path-effect="#path-effect2650"
       inkscape:original-d="m 38.222589,13.237261 c 0,0 -0.440242,25.593037 -0.661863,38.388055 -4.135726,-0.05416 -8.272288,-0.10931 -12.409932,-0.165466 -0.716032,1.600535 -2.151054,4.798507 -2.151054,4.798507 h 33.755014 c 0,0 -1.04549,-3.007547 -1.569751,-4.512865 -4.640935,0.001 -9.282593,0.001 -13.925529,0 C 40.88628,38.28628 40.136916,11.365666 40.136916,11.365666 Z"
       sodipodi:nodetypes="ccccccccc" />
    <path
       style="fill:none;stroke:#000000;stroke-width:1px;stroke-linecap:butt;stroke-linejoin:miter;stroke-opacity:1"
       d="m 54.509726,53.244206 c 3.822414,-2.086726 7.644478,-4.173261 11.028141,-3.753381 3.383663,0.41988 6.328153,3.344871 9.175276,4.962965 2.847123,1.618094 5.596614,1.930093 7.692305,1.130577 2.095691,-0.799517 3.538686,-2.710511 4.299207,-3.997182 0.760521,-1.28667 0.838521,-1.949669 0.916625,-2.61355"
       id="path4023"
       inkscape:path-effect="#path-effect4025"
       inkscape:original-d="m 54.509726,53.244206 c 3.823064,-2.085535 7.645128,-4.17207 11.466192,-6.259605 2.945608,2.926108 5.890099,5.851098 8.833648,8.775147 2.750601,0.313012 5.500092,0.625011 8.248638,0.936016 1.444053,-1.91007 2.887048,-3.821064 4.329072,-5.733096 0.079,-0.662024 0.157003,-1.325022 0.234004,-1.989033" />
    <circle
       style="fill:#946262;fill-opacity:1;fill-rule:evenodd;stroke:#000000;stroke-linecap:round;stroke-linejoin:round;stroke-opacity:1"
       id="path4148"
       cx="88.528046"
       cy="40.28624"
       r="8.7458963" />
    <path
       style="fill:none;stroke:#000000;stroke-width:1px;stroke-linecap:round;stroke-linejoin:miter;stroke-opacity:1"
       d="m 1.280505,27.78743 c 0.9284943,0.129619 1.8558639,0.25908 2.3189963,0.323734 0.4631324,0.06465 0.4631324,0.06465 0.4631324,0.06465"
       id="path4908"
       inkscape:path-effect="#path-effect4910"
       inkscape:original-d="m 1.280505,27.78743 c 0.9283764,0.130463 1.8557461,0.259924 2.7821287,0.388388 10e-4,0.001 0,0 0,0"
       sodipodi:nodetypes="ccc" />
    <path
       style="fill:none;stroke:#000000;stroke-width:1.00157;stroke-linecap:round;stroke-linejoin:round;stroke-miterlimit:4;stroke-dasharray:none;stroke-opacity:1"
       d="M 4.1433026,39.719931 C 4.9264364,39.039409 5.7094953,38.358952 6.3171961,37.846831 6.924897,37.33471 7.3570631,36.99106 7.7893548,36.64731"
       id="path4908-4"
       inkscape:path-effect="#path-effect5108"
       inkscape:original-d="m 4.1433026,39.719931 c 0.7840592,-0.679457 1.567118,-1.359914 2.3491772,-2.041371 0.4332917,-0.34275 1.296875,-1.03125 1.296875,-1.03125"
       sodipodi:nodetypes="ccc" />
    <path
       style="fill:none;stroke:#000000;stroke-width:1.00157;stroke-linecap:round;stroke-linejoin:round;stroke-miterlimit:4;stroke-dasharray:none;stroke-opacity:1"
       d="m 15.934917,44.271196 c -3.03e-4,-0.655509 -6.06e-4,-1.312018 0.0107,-1.79275 0.01131,-0.480732 0.03437,-0.786523 0.05736,-1.091395"
       id="path4908-4-2"
       inkscape:path-effect="#path-effect5827"
       inkscape:original-d="m 15.934917,44.271196 c 6.97e-4,-0.655509 3.93e-4,-1.312018 -9.1e-4,-1.969528 0.02399,-0.303873 0.06897,-0.914617 0.06897,-0.914617"
       sodipodi:nodetypes="ccc" />
  </g>
</svg>
